<svg width="21" height="21" viewBox="0 0 21 21" fill="none" xmlns="http://www.w3.org/2000/svg">
<g opacity="0.7" clip-path="url(#clip0_1_3903)">
<path d="M17.5039 18L13.7655 14.255L17.5039 18ZM15.8372 9.25002C15.8372 11.1286 15.0909 12.9303 13.7625 14.2587C12.4342 15.5871 10.6325 16.3334 8.75387 16.3334C6.87525 16.3334 5.07358 15.5871 3.74519 14.2587C2.41681 12.9303 1.67053 11.1286 1.67053 9.25002C1.67053 7.3714 2.41681 5.56973 3.74519 4.24135C5.07358 2.91296 6.87525 2.16669 8.75387 2.16669C10.6325 2.16669 12.4342 2.91296 13.7625 4.24135C15.0909 5.56973 15.8372 7.3714 15.8372 9.25002V9.25002Z" stroke="white" stroke-width="2" stroke-linecap="round"/>
</g>
<defs>
<clipPath id="clip0_1_3903">
<rect width="20" height="20" fill="white" transform="translate(0.00390625 0.5)"/>
</clipPath>
</defs>
</svg>
