<svg width="84" height="26" viewBox="0 0 84 26" fill="none" xmlns="http://www.w3.org/2000/svg">
<path d="M0.503906 3H19.2695V7.03125H12.2695V26H7.50391V7.03125H0.503906V3ZM21.5977 26V9H25.8789V12.0781C26.5143 10.7865 27.1966 9.88021 27.9258 9.35938C28.6549 8.82812 29.5716 8.5625 30.6758 8.5625C30.8216 8.5625 31.1237 8.57812 31.582 8.60938V13.1562C31.1341 13.125 30.7487 13.1094 30.4258 13.1094C27.5299 13.1094 26.082 14.4531 26.082 17.1406V26H21.5977ZM32.5195 26L38.3633 17.3594L32.7227 9H38.1758L41.1289 13.9844L44.0195 9H49.2695L43.6133 17.2969L49.4727 26H43.9414L40.9102 20.8906L37.9102 26H32.5195ZM58.8008 21.625L62.5195 9H67.2852L61.0352 26H56.3477L50.3477 9H55.3164L58.8008 21.625ZM69.8945 26V3H74.3789V26H69.8945ZM78.5977 21.3281H83.3945V26H78.5977V21.3281Z" fill="#2659C3"/>
</svg>
