<svg width="25" height="25" viewBox="0 0 25 25" fill="none" xmlns="http://www.w3.org/2000/svg">
<g clip-path="url(#clip0_1_4218)">
<path d="M19.7157 6.00834H17.1469L17.1476 2.25824C17.1476 1.01602 15.9958 0.00817871 14.5762 0.00817871H9.43331C8.01366 0.00817871 6.86188 1.01602 6.86188 2.25824L6.85856 6.00834H4.28713C2.86748 6.00834 1.7157 7.01617 1.7157 8.25839V20.2587C1.7157 21.5009 2.86748 22.5088 4.28713 22.5088H5.14695L5.14427 23.2588C5.14427 23.676 5.52463 24.0088 6.00141 24.0088H7.7157C8.19248 24.0088 8.57284 23.676 8.57284 23.2588L8.5782 22.5088H15.4353L15.43 23.2588C15.43 23.6748 15.8117 24.0088 16.2871 24.0088H18.0014C18.4769 24.0088 18.8586 23.6748 18.8586 23.2588L18.8612 22.5088H19.7157C21.1353 22.5088 22.2871 21.5009 22.2871 20.2587V8.25839C22.2871 7.01617 21.1353 6.00834 19.7157 6.00834ZM9.43534 2.25824H14.5782V6.00834H9.43534V2.25824V2.25824ZM18.0014 18.0086H6.00141C5.52998 18.0086 5.14427 17.6711 5.14427 17.2586C5.14427 16.8461 5.52998 16.5086 6.00141 16.5086H18.0014C18.4729 16.5086 18.8586 16.8461 18.8586 17.2586C18.8586 17.6711 18.4728 18.0086 18.0014 18.0086ZM18.0014 12.0085H6.00141C5.52998 12.0085 5.14427 11.671 5.14427 11.2585C5.14427 10.846 5.52998 10.5085 6.00141 10.5085H18.0014C18.4728 10.5085 18.8586 10.846 18.8586 11.2585C18.8586 11.671 18.4728 12.0085 18.0014 12.0085Z" fill="black"/>
</g>
<defs>
<clipPath id="clip0_1_4218">
<rect width="24" height="24.0006" fill="white" transform="translate(0.00134277 0.00817871)"/>
</clipPath>
</defs>
</svg>
